#!OML:ASF F:\VICON\USERDATA\INSTALL\rory7\rory7.ASF
:FULLY-SPECIFIED
:DEGREES
758
root -0.0265404 18.8314 4.14067 -3.62968 -5.26208 0.259054
lowerback 5.84691 1.6356 -0.237409
upperback -0.47182 2.10155 -1.64757
thorax -3.71187 1.03263 -1.75534
lowerneck -7.5188 -5.7945 -6.38937
upperneck -1.27708 -7.34195 8.86809
head 1.5534 -3.50825 3.74796
rclavicle 5.51627e-015 2.78299e-015
rhumerus 40.0831 -3.57932 -48.2869
rradius 122.794
rwrist 15.7202
rhand -47.9561 17.6664
rfingers 7.12502
rthumb -20.6262 -11.2577
lclavicle 5.51627e-015 2.78299e-015
lhumerus -34.958 14.5174 69.3011
lradius 21.0502
lwrist -8.77261
lhand -25.5445 21.8321
lfingers 7.12502
lthumb 0.985689 51.8095
rfemur 0 0 0
rtibia 0
rfoot 0 0
rtoes 0
lfemur 7.13267 -10.2277 -19.287
ltibia 10.3246
lfoot -13.5857 21.8917
ltoes -4.36778
759
root -0.0266089 18.8305 4.14275 -3.67024 -5.23645 0.292402
lowerback 5.84816 1.6394 -0.265763
upperback -0.484977 2.10353 -1.67061
thorax -3.72633 1.03383 -1.7638
lowerneck -7.48618 -5.78776 -6.35246
upperneck -1.29502 -7.33663 8.87248
head 1.53962 -3.50648 3.7436
rclavicle 2.62147e-014 -1.94809e-014
rhumerus 40.1155 -3.62634 -48.2811
rradius 122.791
rwrist 15.7204
rhand -48.0284 17.6581
rfingers 7.12502
rthumb -20.6957 -11.2585
lclavicle 2.62147e-014 -1.94809e-014
lhumerus -34.9651 14.7408 69.149
lradius 21.0097
lwrist -9.37171
lhand -25.6849 21.9073
lfingers 7.12502
lthumb 0.850091 51.8853
rfemur 0 0 0
rtibia 0
rfoot 0 0
rtoes 0
lfemur 7.16345 -10.279 -19.3426
ltibia 10.3485
lfoot -13.5861 21.9343
ltoes -4.58869
760
root -0.0211939 18.8301 4.15539 -3.67153 -5.42092 0.315699
lowerback 5.65938 1.69994 -0.194957
upperback -0.479177 2.1902 -1.71224
thorax -3.60747 1.07598 -1.84704
lowerneck -7.46281 -5.77689 -6.39393
upperneck -1.2819 -7.32317 8.97065
head 1.54593 -3.49859 3.78728
rclavicle 3.3048e-015 8.74653e-015
rhumerus 40.158 -3.66511 -48.3228
rradius 122.819
rwrist 15.6456
rhand -47.8674 17.6889
rfingers 7.12502
rthumb -20.541 -11.2444
lclavicle 3.3048e-015 8.74653e-015
lhumerus -34.8395 15.247 68.811
lradius 20.649
lwrist -10.4731
lhand -26.0538 21.8037
lfingers 7.12502
lthumb 0.493768 51.7829
rfemur 0 0 0
rtibia 0
rfoot 0 0
rtoes 0
lfemur 7.24095 -10.3868 -19.4619
ltibia 10.3592
lfoot -13.7575 22.2093
ltoes -4.37661
761
root -0.018736 18.8297 4.16211 -3.67662 -5.5398 0.281583
lowerback 5.54737 1.73035 -0.114378
upperback -0.484659 2.23721 -1.72202
thorax -3.54528 1.09819 -1.90223
lowerneck -7.37453 -5.76215 -6.52441
upperneck -1.3554 -7.29727 9.15092
head 1.51953 -3.48543 3.87999
rclavicle 3.28989e-014 8.74653e-015
rhumerus 40.1991 -3.68316 -48.3767
rradius 122.821
rwrist 15.648
rhand -47.5953 17.6004
rfingers 7.12502
rthumb -20.2795 -11.3609
lclavicle 3.28989e-014 8.74653e-015
lhumerus -34.7987 15.4212 68.6829
lradius 20.5296
lwrist -10.8493
lhand -26.3094 21.6177
lfingers 7.12502
lthumb 0.24687 51.5973
rfemur 0 0 0
rtibia 0
rfoot 0 0
rtoes 0
lfemur 7.30245 -10.4532 -19.4739
ltibia 10.3469
lfoot -13.8594 22.3658
ltoes -4.06064
762
root -0.0186156 18.8286 4.16394 -3.69407 -5.54798 0.28553
lowerback 5.51839 1.73552 -0.124276
upperback -0.498297 2.2437 -1.719
thorax -3.54339 1.10161 -1.89338
lowerneck -7.33674 -5.76207 -6.62468
upperneck -1.41439 -7.28956 9.24525
head 1.50244 -3.48138 3.93445
rclavicle 8.44835e-016 1.70955e-014
rhumerus 40.2143 -3.68515 -48.3818
rradius 122.824
rwrist 15.6441
rhand -47.3868 17.4685
rfingers 7.12502
rthumb -20.0791 -11.5139
lclavicle 8.44835e-016 1.70955e-014
lhumerus -34.8086 15.3981 68.7195
lradius 20.5705
lwrist -10.7633
lhand -26.3594 21.5537
lfingers 7.12502
lthumb 0.198581 51.5334
rfemur 0 0 0
rtibia 0
rfoot 0 0
rtoes 0
lfemur 7.33483 -10.5233 -19.4986
ltibia 10.3469
lfoot -13.9168 22.4209
ltoes -3.8319
763
root -0.0183849 18.8274 4.1656 -3.72989 -5.53396 0.271033
lowerback 5.52493 1.74236 -0.115783
upperback -0.500342 2.2536 -1.71027
thorax -3.54889 1.10641 -1.89024
lowerneck -7.46218 -5.78283 -6.62787
upperneck -1.33251 -7.3149 9.21634
head 1.55294 -3.49063 3.9199
rclavicle 5.3324e-014 -2.46493e-014
rhumerus 40.184 -3.71598 -48.3535
rradius 122.881
rwrist 15.4918
rhand -47.0309 17.3087
rfingers 7.12502
rthumb -19.737 -11.7093
lclavicle 5.3324e-014 -2.46493e-014
lhumerus -34.798 15.3981 68.7651
lradius 20.599
lwrist -10.7711
lhand -26.2749 21.9092
lfingers 7.12502
lthumb 0.280241 51.8888
rfemur 0 0 0
rtibia 0
rfoot 0 0
rtoes 0
lfemur 7.37304 -10.5729 -19.5019
ltibia 10.3691
lfoot -13.9466 22.4574
ltoes -3.75044
764
root -0.0186523 18.8267 4.16652 -3.77708 -5.494 0.273039
lowerback 5.54285 1.73865 -0.122936
upperback -0.501899 2.24789 -1.7121
thorax -3.56097 1.10359 -1.88836
lowerneck -7.59004 -5.8366 -6.59264
upperneck -1.19683 -7.38931 9.12755
head 1.62079 -3.52485 3.87354
rclavicle -4.84538e-015 -7.95139e-016
rhumerus 40.145 -3.75077 -48.3247
rradius 122.953
rwrist 15.2969
rhand -46.567 17.389
rfingers 7.12502
rthumb -19.291 -11.6742
lclavicle -4.84538e-015 -7.95139e-016
lhumerus -34.8008 15.3678 68.8135
lradius 20.6339
lwrist -10.7436
lhand -26.1824 22.3565
lfingers 7.12502
lthumb 0.369547 52.336
rfemur 0 0 0
rtibia 0
rfoot 0 0
rtoes 0
lfemur 7.41073 -10.5189 -19.4964
ltibia 10.3823
lfoot -13.9226 22.3808
ltoes -3.73927
765
root -0.0191644 18.8265 4.16755 -3.79602 -5.44173 0.283551
lowerback 5.53052 1.72071 -0.142837
upperback -0.518278 2.22224 -1.72027
thorax -3.57219 1.09102 -1.88346
lowerneck -7.58484 -5.8748 -6.586
upperneck -1.17413 -7.44121 9.07256
head 1.62843 -3.5515 3.84983
rclavicle 5.59827e-014 -1.43125e-014
rhumerus 40.1201 -3.74086 -48.2918
rradius 122.956
rwrist 15.2702
rhand -46.4772 17.8729
rfingers 7.12502
rthumb -19.2047 -11.1989
lclavicle 5.59827e-014 -1.43125e-014
lhumerus -34.8287 15.3368 68.8316
lradius 20.678
lwrist -10.7196
lhand -26.1086 22.6374
lfingers 7.12502
lthumb 0.440884 52.6167
rfemur 0 0 0
rtibia 0
rfoot 0 0
rtoes 0
lfemur 7.42091 -10.4557 -19.4888
ltibia 10.3916
lfoot -13.9408 22.2502
ltoes -3.70802
